<svg width="1101" height="193" viewBox="0 0 1101 193" fill="none" xmlns="http://www.w3.org/2000/svg">
<path fill-rule="evenodd" clip-rule="evenodd" d="M186.658 128.658C190.119 118.746 192 108.093 192 97C192 43.9807 149.019 1 96 1C42.9807 1 0 43.9807 0 97C0 123.234 10.523 147.011 27.5783 164.338L124.958 66.9584L149 91L186.658 128.658ZM169.122 159.205L124.958 115.042L55.7978 184.202C68.0269 189.849 81.6455 193 96 193C125.288 193 151.514 179.884 169.122 159.205Z" fill="#10B981"/>
<path d="M251.072 147V46.2H300.32C307.136 46.2 313.136 47.544 318.32 50.232C323.6 52.824 327.68 56.472 330.56 61.176C333.536 65.88 335.024 71.304 335.024 77.448C335.024 83.88 333.248 89.544 329.696 94.44C326.144 99.336 321.392 102.984 315.44 105.384L337.76 147H314.432L294.704 108.408H271.952V147H251.072ZM271.952 91.272H298.448C303.152 91.272 306.896 90.024 309.68 87.528C312.56 85.032 314 81.768 314 77.736C314 73.704 312.56 70.44 309.68 67.944C306.896 65.448 303.152 64.2 298.448 64.2H271.952V91.272ZM379.727 148.44C372.239 148.44 365.471 146.712 359.423 143.256C353.375 139.8 348.575 135.144 345.023 129.288C341.471 123.432 339.695 116.856 339.695 109.56C339.695 102.264 341.423 95.688 344.879 89.832C348.431 83.88 353.231 79.176 359.279 75.72C365.423 72.264 372.239 70.536 379.727 70.536C387.215 70.536 393.983 72.264 400.031 75.72C406.175 79.176 410.975 83.88 414.431 89.832C417.983 95.688 419.759 102.264 419.759 109.56C419.759 116.856 417.983 123.432 414.431 129.288C410.975 135.144 406.223 139.8 400.175 143.256C394.127 146.712 387.311 148.44 379.727 148.44ZM379.727 131.304C383.663 131.304 387.167 130.344 390.239 128.424C393.407 126.504 395.903 123.912 397.727 120.648C399.647 117.288 400.607 113.592 400.607 109.56C400.607 105.432 399.647 101.736 397.727 98.472C395.903 95.208 393.407 92.616 390.239 90.696C387.167 88.68 383.663 87.672 379.727 87.672C375.887 87.672 372.383 88.68 369.215 90.696C366.047 92.616 363.551 95.208 361.727 98.472C359.903 101.736 358.991 105.432 358.991 109.56C358.991 113.592 359.903 117.288 361.727 120.648C363.551 123.912 366.047 126.504 369.215 128.424C372.383 130.344 375.887 131.304 379.727 131.304ZM467.741 148.44C460.349 148.44 453.677 146.76 447.725 143.4C441.773 139.944 437.069 135.288 433.613 129.432C430.157 123.48 428.429 116.856 428.429 109.56C428.429 102.168 430.157 95.544 433.613 89.688C437.069 83.832 441.773 79.176 447.725 75.72C453.677 72.264 460.349 70.536 467.741 70.536C473.693 70.536 479.357 71.688 484.733 73.992C490.205 76.296 494.909 79.608 498.845 83.928L486.749 96.744C483.965 93.672 481.037 91.416 477.965 89.976C474.989 88.44 471.725 87.672 468.173 87.672C464.333 87.672 460.877 88.632 457.805 90.552C454.829 92.472 452.429 95.064 450.605 98.328C448.877 101.592 448.013 105.336 448.013 109.56C448.013 113.592 448.877 117.288 450.605 120.648C452.429 123.912 454.925 126.504 458.093 128.424C461.261 130.248 464.765 131.16 468.605 131.16C471.965 131.16 475.085 130.488 477.965 129.144C480.941 127.704 483.773 125.592 486.461 122.808L498.269 135.192C494.429 139.32 489.821 142.584 484.445 144.984C479.069 147.288 473.501 148.44 467.741 148.44ZM508.526 147V46.2L528.254 42.888V103.512L560.654 71.976H582.974L547.55 106.392L585.134 147H559.934L528.254 112.728V147H508.526ZM598.839 177.96C597.111 177.96 595.431 177.864 593.799 177.672C592.263 177.576 590.967 177.432 589.911 177.24V160.248C591.831 160.632 594.135 160.824 596.823 160.824C604.023 160.824 609.015 157.416 611.799 150.6L612.951 147.72L583.719 71.976H605.463L624.183 123.096L645.351 71.976H666.663L632.103 153.048C629.511 159.096 626.679 163.944 623.607 167.592C620.535 171.24 616.983 173.88 612.951 175.512C609.015 177.144 604.311 177.96 598.839 177.96ZM706.041 147V46.2H717.129V137.064H777.177V147H706.041ZM791.072 147V74.856H801.728V147H791.072ZM796.4 61.032C794.48 61.032 792.8 60.312 791.36 58.872C789.92 57.432 789.2 55.752 789.2 53.832C789.2 51.816 789.92 50.136 791.36 48.792C792.8 47.352 794.48 46.632 796.4 46.632C798.416 46.632 800.096 47.352 801.44 48.792C802.88 50.136 803.6 51.816 803.6 53.832C803.6 55.752 802.88 57.432 801.44 58.872C800.096 60.312 798.416 61.032 796.4 61.032ZM819.9 147V74.856H830.556V83.352C836.22 76.728 843.804 73.416 853.308 73.416C858.78 73.416 863.58 74.616 867.708 77.016C871.932 79.32 875.196 82.584 877.5 86.808C879.9 90.936 881.1 95.784 881.1 101.352V147H870.588V103.512C870.588 97.08 868.764 92.04 865.116 88.392C861.564 84.648 856.668 82.776 850.428 82.776C846.108 82.776 842.268 83.736 838.908 85.656C835.548 87.576 832.764 90.312 830.556 93.864V147H819.9ZM925.876 148.44C920.404 148.44 915.556 147.288 911.332 144.984C907.108 142.584 903.796 139.32 901.396 135.192C899.092 130.968 897.94 126.072 897.94 120.504V74.856H908.452V118.344C908.452 124.776 910.276 129.864 913.924 133.608C917.572 137.256 922.468 139.08 928.612 139.08C932.932 139.08 936.772 138.12 940.132 136.2C943.588 134.184 946.372 131.4 948.484 127.848V74.856H959.14V147H948.484V138.648C942.82 145.176 935.284 148.44 925.876 148.44ZM968.908 147L997.276 109.848L970.348 74.856H983.02L1003.47 101.928L1023.92 74.856H1036.16L1009.52 109.704L1038.03 147H1025.36L1003.32 117.624L981.004 147H968.908Z" fill="black"/>
</svg>
