<svg width="1161" height="193" viewBox="0 0 1161 193" fill="none" xmlns="http://www.w3.org/2000/svg">
<path d="M210.992 78.944V11.744H243.824C247.216 11.744 250.32 12.256 253.136 13.28C256.016 14.304 258.48 15.744 260.528 17.6C262.576 19.392 264.176 21.568 265.328 24.128C266.48 26.688 267.056 29.504 267.056 32.576C267.056 36.8 265.84 40.576 263.408 43.904C261.04 47.232 257.872 49.696 253.904 51.296L268.784 78.944H253.232L240.08 53.216H224.912V78.944H210.992ZM242.576 23.744H224.912V41.792H242.576C245.712 41.792 248.208 40.96 250.064 39.296C251.984 37.632 252.944 35.456 252.944 32.768C252.944 30.08 251.984 27.904 250.064 26.24C248.208 24.576 245.712 23.744 242.576 23.744Z" fill="black"/>
<path d="M270.074 53.984C270.074 50.336 270.746 46.944 272.09 43.808C273.498 40.608 275.386 37.856 277.754 35.552C280.186 33.184 283.034 31.328 286.298 29.984C289.562 28.64 293.05 27.968 296.762 27.968C300.474 27.968 303.962 28.64 307.226 29.984C310.49 31.328 313.306 33.184 315.674 35.552C318.106 37.856 319.994 40.608 321.338 43.808C322.746 46.944 323.45 50.336 323.45 53.984C323.45 57.632 322.746 61.056 321.338 64.256C319.994 67.392 318.106 70.112 315.674 72.416C313.306 74.72 310.49 76.544 307.226 77.888C303.962 79.232 300.474 79.904 296.762 79.904C293.05 79.904 289.562 79.232 286.298 77.888C283.034 76.544 280.186 74.72 277.754 72.416C275.386 70.112 273.498 67.392 272.09 64.256C270.746 61.056 270.074 57.632 270.074 53.984ZM296.762 68.48C300.602 68.48 303.866 67.072 306.554 64.256C309.242 61.44 310.586 58.016 310.586 53.984C310.586 49.888 309.242 46.432 306.554 43.616C303.866 40.8 300.602 39.392 296.762 39.392C292.922 39.392 289.658 40.8 286.97 43.616C284.282 46.432 282.938 49.888 282.938 53.984C282.938 58.016 284.282 61.44 286.97 64.256C289.658 67.072 292.922 68.48 296.762 68.48Z" fill="black"/>
<path d="M356.389 68.384C358.629 68.384 360.709 67.936 362.629 67.04C364.613 66.144 366.501 64.736 368.293 62.816L376.165 70.976C373.605 73.792 370.533 76 366.949 77.6C363.365 79.136 359.653 79.904 355.813 79.904C352.165 79.904 348.709 79.232 345.445 77.888C342.245 76.544 339.461 74.72 337.093 72.416C334.789 70.112 332.965 67.392 331.621 64.256C330.277 61.056 329.605 57.632 329.605 53.984C329.605 50.336 330.277 46.944 331.621 43.808C332.965 40.608 334.789 37.856 337.093 35.552C339.461 33.184 342.245 31.328 345.445 29.984C348.709 28.64 352.165 27.968 355.813 27.968C359.781 27.968 363.589 28.768 367.237 30.368C370.885 31.904 373.989 34.08 376.549 36.896L368.485 45.44C366.693 43.456 364.773 41.952 362.725 40.928C360.677 39.904 358.469 39.392 356.101 39.392C352.325 39.392 349.125 40.8 346.501 43.616C343.941 46.432 342.661 49.888 342.661 53.984C342.661 58.08 343.973 61.504 346.597 64.256C349.285 67.008 352.549 68.384 356.389 68.384Z" fill="black"/>
<path d="M383.003 78.944V11.744L396.155 8.864V50.048L417.755 28.928H432.635L409.211 51.872L434.075 78.944H417.275L396.155 56.096V78.944H383.003Z" fill="black"/>
<path d="M452.039 81.248L452.807 79.424L433.319 28.928H447.815L460.199 63.008L474.407 28.928H488.615L465.575 82.88C463.015 88.896 460.039 93.184 456.647 95.744C453.255 98.304 448.839 99.584 443.399 99.584C442.247 99.584 441.127 99.52 440.039 99.392C439.015 99.328 438.183 99.2 437.543 99.008V87.68C438.183 87.808 438.855 87.904 439.559 87.968C440.263 88.032 441.127 88.064 442.151 88.064C444.519 88.064 446.503 87.488 448.103 86.336C449.767 85.184 451.079 83.488 452.039 81.248Z" fill="black"/>
<path d="M513.992 78.944V11.744H565.64V23.84H527.912V39.2H552.776V50.912H527.912V66.848H566.024V78.944H513.992Z" fill="black"/>
<path d="M575.003 78.944V28.928H588.155V32.864C590.075 31.264 592.187 30.048 594.491 29.216C596.859 28.384 599.419 27.968 602.171 27.968C607.931 27.968 612.667 29.824 616.379 33.536C620.091 37.248 621.947 42.016 621.947 47.84V78.944H608.795V49.76C608.795 46.624 607.835 44.096 605.915 42.176C604.059 40.256 601.563 39.296 598.427 39.296C596.251 39.296 594.267 39.744 592.475 40.64C590.747 41.472 589.307 42.688 588.155 44.288V78.944H575.003Z" fill="black"/>
<path d="M636.85 64.832V39.968H626.578V28.928H636.85V16.16L650.002 13.184V28.928H664.21V39.968H650.002V62.144C650.002 64.512 650.514 66.176 651.538 67.136C652.562 68.096 654.354 68.576 656.914 68.576C658.13 68.576 659.282 68.512 660.37 68.384C661.458 68.192 662.642 67.872 663.922 67.424V78.176C662.514 78.624 660.818 78.976 658.834 79.232C656.85 79.552 655.154 79.712 653.746 79.712C648.178 79.712 643.954 78.464 641.074 75.968C638.258 73.408 636.85 69.696 636.85 64.832Z" fill="black"/>
<path d="M715.085 72.704C712.013 75.2 708.845 77.024 705.581 78.176C702.381 79.328 698.797 79.904 694.829 79.904C691.053 79.904 687.501 79.232 684.173 77.888C680.909 76.544 678.061 74.72 675.629 72.416C673.261 70.112 671.373 67.392 669.965 64.256C668.621 61.056 667.949 57.632 667.949 53.984C667.949 50.4 668.589 47.04 669.869 43.904C671.213 40.704 673.037 37.952 675.341 35.648C677.645 33.28 680.365 31.424 683.501 30.08C686.701 28.736 690.093 28.064 693.677 28.064C697.197 28.064 700.461 28.768 703.469 30.176C706.541 31.52 709.165 33.376 711.341 35.744C713.581 38.112 715.309 40.96 716.525 44.288C717.805 47.552 718.445 51.104 718.445 54.944V58.4H681.197C682.093 61.536 683.821 64.064 686.381 65.984C688.941 67.904 691.949 68.864 695.405 68.864C697.581 68.864 699.629 68.512 701.549 67.808C703.469 67.104 705.101 66.112 706.445 64.832L715.085 72.704ZM693.389 38.912C690.381 38.912 687.789 39.84 685.613 41.696C683.437 43.488 681.933 45.92 681.101 48.992H705.581C704.749 46.048 703.213 43.648 700.973 41.792C698.797 39.872 696.269 38.912 693.389 38.912Z" fill="black"/>
<path d="M726.503 78.944V28.928H739.655V34.4C741.255 32.224 743.175 30.592 745.415 29.504C747.719 28.352 750.247 27.776 752.999 27.776C754.279 27.84 755.335 27.968 756.167 28.16C757.063 28.288 757.831 28.544 758.471 28.928V40.448C757.511 40 756.455 39.68 755.303 39.488C754.151 39.232 752.967 39.104 751.751 39.104C749.191 39.104 746.823 39.744 744.647 41.024C742.535 42.304 740.871 44.16 739.655 46.592V78.944H726.503Z" fill="black"/>
<path d="M765.597 99.008V28.928H778.557V33.056C780.541 31.456 782.749 30.272 785.181 29.504C787.613 28.672 790.141 28.256 792.765 28.256C796.285 28.256 799.581 28.928 802.653 30.272C805.789 31.616 808.509 33.44 810.813 35.744C813.117 38.048 814.909 40.768 816.189 43.904C817.533 47.04 818.205 50.4 818.205 53.984C818.205 57.568 817.533 60.928 816.189 64.064C814.845 67.2 813.021 69.92 810.717 72.224C808.413 74.528 805.661 76.352 802.461 77.696C799.325 78.976 795.965 79.616 792.381 79.616C789.949 79.616 787.549 79.296 785.181 78.656C782.877 77.952 780.733 76.96 778.749 75.68V99.008H765.597ZM790.653 39.488C788.285 39.488 786.077 39.904 784.029 40.736C781.981 41.504 780.221 42.656 778.749 44.192V63.872C780.157 65.28 781.885 66.4 783.933 67.232C786.045 68.064 788.285 68.48 790.653 68.48C794.749 68.48 798.205 67.104 801.021 64.352C803.837 61.536 805.245 58.08 805.245 53.984C805.245 49.888 803.805 46.464 800.925 43.712C798.109 40.896 794.685 39.488 790.653 39.488Z" fill="black"/>
<path d="M826.253 78.944V28.928H839.405V34.4C841.005 32.224 842.925 30.592 845.165 29.504C847.469 28.352 849.997 27.776 852.749 27.776C854.029 27.84 855.085 27.968 855.917 28.16C856.813 28.288 857.581 28.544 858.221 28.928V40.448C857.261 40 856.205 39.68 855.053 39.488C853.901 39.232 852.717 39.104 851.501 39.104C848.941 39.104 846.573 39.744 844.397 41.024C842.285 42.304 840.621 44.16 839.405 46.592V78.944H826.253Z" fill="black"/>
<path d="M871.875 22.976C869.827 22.976 868.067 22.24 866.595 20.768C865.123 19.296 864.387 17.536 864.387 15.488C864.387 13.44 865.123 11.68 866.595 10.208C868.067 8.736 869.827 8 871.875 8C873.923 8 875.683 8.736 877.155 10.208C878.627 11.68 879.363 13.44 879.363 15.488C879.363 17.536 878.627 19.296 877.155 20.768C875.683 22.24 873.923 22.976 871.875 22.976ZM878.499 28.928V78.944H865.347V28.928H878.499Z" fill="black"/>
<path d="M884.56 72.992L891.088 64.256C894.032 66.176 896.816 67.616 899.44 68.576C902.064 69.472 904.688 69.92 907.312 69.92C910.256 69.92 912.592 69.44 914.32 68.48C916.112 67.52 917.008 66.24 917.008 64.64C917.008 63.36 916.496 62.336 915.472 61.568C914.512 60.8 912.944 60.256 910.768 59.936L901.168 58.496C896.24 57.728 892.464 56.128 889.84 53.696C887.28 51.264 886 48.032 886 44C886 39.2 887.888 35.36 891.664 32.48C895.44 29.6 900.496 28.16 906.832 28.16C910.48 28.16 914.032 28.704 917.488 29.792C920.944 30.816 924.24 32.352 927.376 34.4L921.04 42.848C918.288 41.248 915.664 40.064 913.168 39.296C910.672 38.464 908.144 38.048 905.584 38.048C903.216 38.048 901.296 38.496 899.824 39.392C898.416 40.288 897.712 41.472 897.712 42.944C897.712 44.288 898.224 45.344 899.248 46.112C900.336 46.816 902.096 47.328 904.528 47.648L914.128 49.088C918.992 49.792 922.736 51.392 925.36 53.888C928.048 56.384 929.392 59.552 929.392 63.392C929.392 65.76 928.816 67.968 927.664 70.016C926.576 72 925.072 73.728 923.152 75.2C921.232 76.672 918.928 77.824 916.24 78.656C913.552 79.488 910.64 79.904 907.504 79.904C902.96 79.904 898.704 79.328 894.736 78.176C890.768 76.96 887.376 75.232 884.56 72.992Z" fill="black"/>
<path d="M981.241 72.704C978.169 75.2 975.001 77.024 971.737 78.176C968.537 79.328 964.953 79.904 960.985 79.904C957.209 79.904 953.657 79.232 950.329 77.888C947.065 76.544 944.217 74.72 941.785 72.416C939.417 70.112 937.529 67.392 936.121 64.256C934.777 61.056 934.105 57.632 934.105 53.984C934.105 50.4 934.745 47.04 936.025 43.904C937.369 40.704 939.193 37.952 941.497 35.648C943.801 33.28 946.521 31.424 949.657 30.08C952.857 28.736 956.249 28.064 959.833 28.064C963.353 28.064 966.617 28.768 969.625 30.176C972.697 31.52 975.321 33.376 977.497 35.744C979.737 38.112 981.465 40.96 982.681 44.288C983.961 47.552 984.601 51.104 984.601 54.944V58.4H947.353C948.249 61.536 949.977 64.064 952.537 65.984C955.097 67.904 958.105 68.864 961.561 68.864C963.737 68.864 965.785 68.512 967.705 67.808C969.625 67.104 971.257 66.112 972.601 64.832L981.241 72.704ZM959.545 38.912C956.537 38.912 953.945 39.84 951.769 41.696C949.593 43.488 948.089 45.92 947.257 48.992H971.737C970.905 46.048 969.369 43.648 967.129 41.792C964.953 39.872 962.425 38.912 959.545 38.912Z" fill="black"/>
<path d="M206 167.424L210.896 162.336C214.352 165.984 218.032 168.768 221.936 170.688C225.904 172.544 230.064 173.472 234.416 173.472C239.664 173.472 243.984 172.224 247.376 169.728C250.768 167.232 252.464 164.064 252.464 160.224C252.464 156.768 251.248 154.112 248.816 152.256C246.448 150.4 242.512 149.024 237.008 148.128L227.312 146.592C220.848 145.568 216.08 143.68 213.008 140.928C209.936 138.112 208.4 134.336 208.4 129.6C208.4 124.032 210.576 119.52 214.928 116.064C219.28 112.608 224.976 110.88 232.016 110.88C236.688 110.88 241.328 111.648 245.936 113.184C250.544 114.72 254.736 116.928 258.512 119.808L254.288 125.568C250.64 122.816 246.928 120.736 243.152 119.328C239.376 117.92 235.568 117.216 231.728 117.216C226.928 117.216 223.024 118.336 220.016 120.576C217.072 122.752 215.6 125.568 215.6 129.024C215.6 132.16 216.656 134.56 218.768 136.224C220.88 137.888 224.368 139.104 229.232 139.872L238.832 141.408C246.128 142.624 251.44 144.704 254.768 147.648C258.16 150.592 259.856 154.656 259.856 159.84C259.856 162.784 259.216 165.504 257.936 168C256.72 170.432 254.96 172.544 252.656 174.336C250.416 176.064 247.696 177.44 244.496 178.464C241.36 179.424 237.904 179.904 234.128 179.904C228.816 179.904 223.696 178.848 218.768 176.736C213.904 174.56 209.648 171.456 206 167.424Z" fill="black"/>
<path d="M267.284 154.848C267.284 151.392 267.924 148.128 269.204 145.056C270.484 141.984 272.212 139.328 274.388 137.088C276.628 134.848 279.252 133.088 282.26 131.808C285.268 130.528 288.468 129.888 291.86 129.888C295.252 129.888 298.42 130.528 301.364 131.808C304.372 133.088 306.964 134.848 309.14 137.088C311.38 139.328 313.14 141.984 314.42 145.056C315.7 148.128 316.34 151.392 316.34 154.848C316.34 158.368 315.7 161.664 314.42 164.736C313.14 167.808 311.38 170.464 309.14 172.704C306.964 174.944 304.372 176.704 301.364 177.984C298.42 179.264 295.252 179.904 291.86 179.904C288.468 179.904 285.268 179.264 282.26 177.984C279.252 176.704 276.628 174.944 274.388 172.704C272.212 170.464 270.484 167.808 269.204 164.736C267.924 161.664 267.284 158.368 267.284 154.848ZM291.86 173.568C294.292 173.568 296.564 173.088 298.676 172.128C300.852 171.168 302.708 169.856 304.244 168.192C305.844 166.464 307.092 164.48 307.988 162.24C308.884 159.936 309.332 157.472 309.332 154.848C309.332 152.224 308.884 149.792 307.988 147.552C307.092 145.248 305.844 143.264 304.244 141.6C302.708 139.936 300.852 138.624 298.676 137.664C296.564 136.704 294.292 136.224 291.86 136.224C289.428 136.224 287.124 136.704 284.948 137.664C282.836 138.624 280.98 139.936 279.38 141.6C277.844 143.264 276.596 145.248 275.636 147.552C274.74 149.792 274.292 152.224 274.292 154.848C274.292 157.472 274.74 159.936 275.636 162.24C276.532 164.48 277.748 166.464 279.284 168.192C280.884 169.856 282.772 171.168 284.948 172.128C287.124 173.088 289.428 173.568 291.86 173.568Z" fill="black"/>
<path d="M318.326 130.848H329.654V121.728C329.654 117.056 330.934 113.472 333.494 110.976C336.054 108.416 339.734 107.136 344.534 107.136C345.814 107.136 346.966 107.2 347.99 107.328C349.014 107.456 350.006 107.68 350.966 108V114.336C349.878 114.016 348.886 113.792 347.99 113.664C347.094 113.472 346.102 113.376 345.014 113.376C342.198 113.376 340.086 114.08 338.678 115.488C337.334 116.832 336.662 118.976 336.662 121.92V130.848H350.966V136.896H336.662V178.944H329.654V136.896H318.326V130.848Z" fill="black"/>
<path d="M365.538 168.192V136.896H355.17V130.848H365.538V118.656L372.546 116.832V130.848H387.042V136.896H372.546V166.368C372.546 168.928 373.122 170.784 374.274 171.936C375.426 173.024 377.314 173.568 379.938 173.568C381.282 173.568 382.466 173.472 383.49 173.28C384.578 173.088 385.73 172.768 386.946 172.32V178.56C385.73 179.008 384.354 179.328 382.818 179.52C381.346 179.712 379.906 179.808 378.498 179.808C374.338 179.808 371.138 178.816 368.898 176.832C366.658 174.848 365.538 171.968 365.538 168.192Z" fill="black"/>
<path d="M411.33 178.944H404.418L390.882 130.848H397.89L408.258 169.248L420.258 130.848H426.594L438.498 169.248L448.962 130.848H455.682L442.05 178.944H435.234L423.33 140.448L411.33 178.944Z" fill="black"/>
<path d="M478.066 179.808C472.818 179.808 468.53 178.464 465.202 175.776C461.938 173.088 460.306 169.6 460.306 165.312C460.306 160.832 462.034 157.28 465.49 154.656C468.946 151.968 473.618 150.624 479.506 150.624C482.066 150.624 484.53 150.912 486.898 151.488C489.33 152.064 491.57 152.864 493.618 153.888V147.552C493.618 143.712 492.53 140.832 490.354 138.912C488.178 136.928 485.01 135.936 480.85 135.936C478.482 135.936 476.082 136.288 473.65 136.992C471.282 137.632 468.658 138.688 465.778 140.16L463.09 134.688C466.546 133.024 469.746 131.808 472.69 131.04C475.634 130.272 478.578 129.888 481.522 129.888C487.602 129.888 492.274 131.328 495.538 134.208C498.866 137.088 500.53 141.216 500.53 146.592V178.944H493.618V174.24C491.442 176.096 489.042 177.504 486.418 178.464C483.858 179.36 481.074 179.808 478.066 179.808ZM467.122 165.12C467.122 167.808 468.242 170.016 470.482 171.744C472.786 173.408 475.73 174.24 479.314 174.24C482.194 174.24 484.818 173.792 487.186 172.896C489.554 172 491.698 170.592 493.618 168.672V159.648C491.634 158.304 489.49 157.344 487.186 156.768C484.946 156.128 482.45 155.808 479.698 155.808C475.858 155.808 472.786 156.672 470.482 158.4C468.242 160.064 467.122 162.304 467.122 165.12Z" fill="black"/>
<path d="M512.398 178.944V130.848H519.502V137.664C520.91 135.168 522.766 133.248 525.07 131.904C527.374 130.496 529.998 129.792 532.942 129.792C533.838 129.792 534.638 129.856 535.342 129.984C536.046 130.048 536.75 130.208 537.454 130.464V136.992C536.622 136.736 535.79 136.544 534.958 136.416C534.126 136.224 533.294 136.128 532.462 136.128C529.518 136.128 526.926 136.992 524.686 138.72C522.446 140.384 520.718 142.816 519.502 146.016V178.944H512.398Z" fill="black"/>
<path d="M582.629 173.856C579.941 175.84 577.125 177.344 574.181 178.368C571.301 179.328 568.133 179.808 564.677 179.808C561.221 179.808 557.957 179.168 554.885 177.888C551.877 176.608 549.253 174.848 547.013 172.608C544.837 170.368 543.109 167.744 541.829 164.736C540.549 161.664 539.909 158.368 539.909 154.848C539.909 151.392 540.517 148.16 541.733 145.152C543.013 142.144 544.709 139.52 546.821 137.28C548.933 135.04 551.429 133.28 554.309 132C557.253 130.72 560.357 130.08 563.621 130.08C566.821 130.08 569.797 130.72 572.549 132C575.365 133.28 577.765 135.04 579.749 137.28C581.797 139.52 583.397 142.144 584.549 145.152C585.765 148.16 586.373 151.392 586.373 154.848V157.056H546.917C547.429 161.792 549.381 165.728 552.773 168.864C556.165 172 560.229 173.568 564.965 173.568C567.461 173.568 569.893 173.184 572.261 172.416C574.629 171.648 576.613 170.56 578.213 169.152L582.629 173.856ZM563.429 136.32C559.269 136.32 555.653 137.728 552.581 140.544C549.573 143.36 547.749 146.976 547.109 151.392H579.269C578.629 147.168 576.805 143.616 573.797 140.736C570.853 137.792 567.397 136.32 563.429 136.32Z" fill="black"/>
<path d="M618.273 178.944V111.744H666.37V118.272H625.665V142.272H652.354V148.704H625.665V178.944H618.273Z" fill="black"/>
<path d="M665.159 154.848C665.159 151.392 665.799 148.128 667.079 145.056C668.359 141.984 670.087 139.328 672.263 137.088C674.503 134.848 677.127 133.088 680.135 131.808C683.143 130.528 686.343 129.888 689.735 129.888C693.127 129.888 696.295 130.528 699.239 131.808C702.247 133.088 704.839 134.848 707.015 137.088C709.255 139.328 711.015 141.984 712.295 145.056C713.575 148.128 714.215 151.392 714.215 154.848C714.215 158.368 713.575 161.664 712.295 164.736C711.015 167.808 709.255 170.464 707.015 172.704C704.839 174.944 702.247 176.704 699.239 177.984C696.295 179.264 693.127 179.904 689.735 179.904C686.343 179.904 683.143 179.264 680.135 177.984C677.127 176.704 674.503 174.944 672.263 172.704C670.087 170.464 668.359 167.808 667.079 164.736C665.799 161.664 665.159 158.368 665.159 154.848ZM689.735 173.568C692.167 173.568 694.439 173.088 696.551 172.128C698.727 171.168 700.583 169.856 702.119 168.192C703.719 166.464 704.967 164.48 705.863 162.24C706.759 159.936 707.207 157.472 707.207 154.848C707.207 152.224 706.759 149.792 705.863 147.552C704.967 145.248 703.719 143.264 702.119 141.6C700.583 139.936 698.727 138.624 696.551 137.664C694.439 136.704 692.167 136.224 689.735 136.224C687.303 136.224 684.999 136.704 682.823 137.664C680.711 138.624 678.855 139.936 677.255 141.6C675.719 143.264 674.471 145.248 673.511 147.552C672.615 149.792 672.167 152.224 672.167 154.848C672.167 157.472 672.615 159.936 673.511 162.24C674.407 164.48 675.623 166.464 677.159 168.192C678.759 169.856 680.647 171.168 682.823 172.128C684.999 173.088 687.303 173.568 689.735 173.568Z" fill="black"/>
<path d="M730.902 130.848V159.84C730.902 164.064 732.118 167.424 734.55 169.92C736.982 172.416 740.246 173.664 744.342 173.664C747.222 173.664 749.782 173.024 752.022 171.744C754.326 170.4 756.182 168.544 757.59 166.176V130.848H764.694V178.944H757.59V173.376C755.734 175.552 753.526 177.184 750.966 178.272C748.47 179.36 745.654 179.904 742.518 179.904C737.014 179.904 732.534 178.176 729.078 174.72C725.622 171.264 723.894 166.784 723.894 161.28V130.848H730.902Z" fill="black"/>
<path d="M776.773 178.944V130.848H783.877V136.512C785.733 134.336 787.941 132.704 790.501 131.616C793.061 130.464 795.909 129.888 799.045 129.888C804.485 129.888 808.933 131.616 812.389 135.072C815.845 138.528 817.573 143.008 817.573 148.512V178.944H810.565V149.952C810.565 145.728 809.349 142.368 806.917 139.872C804.485 137.376 801.221 136.128 797.125 136.128C794.245 136.128 791.653 136.768 789.349 138.048C787.109 139.328 785.285 141.152 783.877 143.52V178.944H776.773Z" fill="black"/>
<path d="M866.997 178.944V173.856C864.949 175.776 862.581 177.248 859.893 178.272C857.269 179.232 854.453 179.712 851.445 179.712C848.053 179.712 844.885 179.072 841.941 177.792C838.997 176.512 836.437 174.784 834.261 172.608C832.085 170.368 830.357 167.712 829.077 164.64C827.861 161.568 827.253 158.304 827.253 154.848C827.253 151.392 827.861 148.16 829.077 145.152C830.357 142.08 832.085 139.456 834.261 137.28C836.437 135.04 838.997 133.28 841.941 132C844.949 130.72 848.149 130.08 851.541 130.08C854.293 130.08 856.981 130.56 859.605 131.52C862.293 132.416 864.725 133.76 866.901 135.552V111.744L874.005 110.112V178.944H866.997ZM834.261 154.752C834.261 157.376 834.709 159.84 835.605 162.144C836.565 164.448 837.845 166.432 839.445 168.096C841.045 169.76 842.933 171.072 845.109 172.032C847.285 172.992 849.621 173.472 852.117 173.472C855.125 173.472 857.909 172.896 860.469 171.744C863.093 170.528 865.237 168.864 866.901 166.752V142.944C865.237 140.896 863.093 139.296 860.469 138.144C857.845 136.928 855.061 136.32 852.117 136.32C847.125 136.32 842.901 138.08 839.445 141.6C835.989 145.12 834.261 149.504 834.261 154.752Z" fill="black"/>
<path d="M901.254 179.808C896.006 179.808 891.718 178.464 888.39 175.776C885.126 173.088 883.494 169.6 883.494 165.312C883.494 160.832 885.222 157.28 888.678 154.656C892.134 151.968 896.806 150.624 902.694 150.624C905.254 150.624 907.718 150.912 910.086 151.488C912.518 152.064 914.758 152.864 916.806 153.888V147.552C916.806 143.712 915.718 140.832 913.542 138.912C911.366 136.928 908.198 135.936 904.038 135.936C901.67 135.936 899.27 136.288 896.838 136.992C894.47 137.632 891.846 138.688 888.966 140.16L886.278 134.688C889.734 133.024 892.934 131.808 895.878 131.04C898.822 130.272 901.766 129.888 904.71 129.888C910.79 129.888 915.462 131.328 918.726 134.208C922.054 137.088 923.718 141.216 923.718 146.592V178.944H916.806V174.24C914.63 176.096 912.23 177.504 909.606 178.464C907.046 179.36 904.262 179.808 901.254 179.808ZM890.31 165.12C890.31 167.808 891.43 170.016 893.67 171.744C895.974 173.408 898.918 174.24 902.502 174.24C905.382 174.24 908.006 173.792 910.374 172.896C912.742 172 914.886 170.592 916.806 168.672V159.648C914.822 158.304 912.678 157.344 910.374 156.768C908.134 156.128 905.638 155.808 902.886 155.808C899.046 155.808 895.974 156.672 893.67 158.4C891.43 160.064 890.31 162.304 890.31 165.12Z" fill="black"/>
<path d="M939.663 168.192V136.896H929.295V130.848H939.663V118.656L946.671 116.832V130.848H961.167V136.896H946.671V166.368C946.671 168.928 947.247 170.784 948.399 171.936C949.551 173.024 951.439 173.568 954.063 173.568C955.407 173.568 956.591 173.472 957.615 173.28C958.703 173.088 959.855 172.768 961.071 172.32V178.56C959.855 179.008 958.479 179.328 956.943 179.52C955.471 179.712 954.031 179.808 952.623 179.808C948.463 179.808 945.263 178.816 943.023 176.832C940.783 174.848 939.663 171.968 939.663 168.192Z" fill="black"/>
<path d="M972.325 121.632C971.045 121.632 969.925 121.152 968.965 120.192C968.005 119.232 967.525 118.112 967.525 116.832C967.525 115.488 968.005 114.368 968.965 113.472C969.925 112.512 971.045 112.032 972.325 112.032C973.669 112.032 974.789 112.512 975.685 113.472C976.645 114.368 977.125 115.488 977.125 116.832C977.125 118.112 976.645 119.232 975.685 120.192C974.789 121.152 973.669 121.632 972.325 121.632ZM975.877 130.848V178.944H968.773V130.848H975.877Z" fill="black"/>
<path d="M985.784 154.848C985.784 151.392 986.424 148.128 987.704 145.056C988.984 141.984 990.712 139.328 992.888 137.088C995.128 134.848 997.752 133.088 1000.76 131.808C1003.77 130.528 1006.97 129.888 1010.36 129.888C1013.75 129.888 1016.92 130.528 1019.86 131.808C1022.87 133.088 1025.46 134.848 1027.64 137.088C1029.88 139.328 1031.64 141.984 1032.92 145.056C1034.2 148.128 1034.84 151.392 1034.84 154.848C1034.84 158.368 1034.2 161.664 1032.92 164.736C1031.64 167.808 1029.88 170.464 1027.64 172.704C1025.46 174.944 1022.87 176.704 1019.86 177.984C1016.92 179.264 1013.75 179.904 1010.36 179.904C1006.97 179.904 1003.77 179.264 1000.76 177.984C997.752 176.704 995.128 174.944 992.888 172.704C990.712 170.464 988.984 167.808 987.704 164.736C986.424 161.664 985.784 158.368 985.784 154.848ZM1010.36 173.568C1012.79 173.568 1015.06 173.088 1017.18 172.128C1019.35 171.168 1021.21 169.856 1022.74 168.192C1024.34 166.464 1025.59 164.48 1026.49 162.24C1027.38 159.936 1027.83 157.472 1027.83 154.848C1027.83 152.224 1027.38 149.792 1026.49 147.552C1025.59 145.248 1024.34 143.264 1022.74 141.6C1021.21 139.936 1019.35 138.624 1017.18 137.664C1015.06 136.704 1012.79 136.224 1010.36 136.224C1007.93 136.224 1005.62 136.704 1003.45 137.664C1001.34 138.624 999.48 139.936 997.88 141.6C996.344 143.264 995.096 145.248 994.136 147.552C993.24 149.792 992.792 152.224 992.792 154.848C992.792 157.472 993.24 159.936 994.136 162.24C995.032 164.48 996.248 166.464 997.784 168.192C999.384 169.856 1001.27 171.168 1003.45 172.128C1005.62 173.088 1007.93 173.568 1010.36 173.568Z" fill="black"/>
<path d="M1044.71 178.944V130.848H1051.81V136.512C1053.67 134.336 1055.88 132.704 1058.44 131.616C1061 130.464 1063.85 129.888 1066.98 129.888C1072.42 129.888 1076.87 131.616 1080.33 135.072C1083.78 138.528 1085.51 143.008 1085.51 148.512V178.944H1078.5V149.952C1078.5 145.728 1077.29 142.368 1074.85 139.872C1072.42 137.376 1069.16 136.128 1065.06 136.128C1062.18 136.128 1059.59 136.768 1057.29 138.048C1055.05 139.328 1053.22 141.152 1051.81 143.52V178.944H1044.71Z" fill="black"/>
<path d="M1090.5 126.968V115.232H1086.61V112.964H1090.5V108.392L1093.13 107.708V112.964H1098.56V115.232H1093.13V126.284C1093.13 127.244 1093.34 127.94 1093.78 128.372C1094.21 128.78 1094.92 128.984 1095.9 128.984C1096.4 128.984 1096.85 128.948 1097.23 128.876C1097.64 128.804 1098.07 128.684 1098.53 128.516V130.856C1098.07 131.024 1097.56 131.144 1096.98 131.216C1096.43 131.288 1095.89 131.324 1095.36 131.324C1093.8 131.324 1092.6 130.952 1091.76 130.208C1090.92 129.464 1090.5 128.384 1090.5 126.968ZM1101.42 131V112.964H1104.08V114.944C1104.75 114.176 1105.53 113.6 1106.42 113.216C1107.31 112.808 1108.29 112.604 1109.37 112.604C1110.62 112.604 1111.74 112.904 1112.72 113.504C1113.73 114.08 1114.51 114.872 1115.06 115.88C1115.8 114.776 1116.69 113.96 1117.72 113.432C1118.78 112.88 1119.96 112.604 1121.25 112.604C1123.2 112.604 1124.78 113.252 1126 114.548C1127.25 115.844 1127.88 117.524 1127.88 119.588V131H1125.25V120.128C1125.25 118.544 1124.83 117.284 1123.99 116.348C1123.15 115.412 1122.01 114.944 1120.57 114.944C1119.58 114.944 1118.68 115.196 1117.87 115.7C1117.05 116.204 1116.36 116.936 1115.78 117.896C1115.83 118.16 1115.86 118.436 1115.89 118.724C1115.94 118.988 1115.96 119.276 1115.96 119.588V131H1113.33V120.128C1113.33 118.544 1112.91 117.284 1112.07 116.348C1111.23 115.412 1110.1 114.944 1108.69 114.944C1107.73 114.944 1106.85 115.172 1106.06 115.628C1105.29 116.06 1104.63 116.708 1104.08 117.572V131H1101.42Z" fill="black"/>
<path d="M15 12H183V116.009L157.011 90.0197L137.601 109.43L98.7808 70.6098L79.3712 90.0194L40.5511 51.1993L15 76.7504V12Z" fill="url(#paint0_linear_122_513)"/>
<path d="M157.011 119.135L96.1463 180H183V145.124L157.011 119.135Z" fill="url(#paint1_linear_122_513)"/>
<path d="M98.7807 99.7251L123.043 123.988L67.0312 180H18.5058L98.7807 99.7251Z" fill="url(#paint2_linear_122_513)"/>
<path d="M40.5511 80.3144L15 105.866V154.391L64.8137 104.577L40.5511 80.3144Z" fill="url(#paint3_linear_122_513)"/>
<defs>
<linearGradient id="paint0_linear_122_513" x1="15" y1="12" x2="183" y2="180" gradientUnits="userSpaceOnUse">
<stop stop-color="#10B981"/>
<stop offset="1" stop-color="#1054B9"/>
</linearGradient>
<linearGradient id="paint1_linear_122_513" x1="15" y1="12" x2="183" y2="180" gradientUnits="userSpaceOnUse">
<stop stop-color="#10B981"/>
<stop offset="1" stop-color="#1054B9"/>
</linearGradient>
<linearGradient id="paint2_linear_122_513" x1="15" y1="12" x2="183" y2="180" gradientUnits="userSpaceOnUse">
<stop stop-color="#10B981"/>
<stop offset="1" stop-color="#1054B9"/>
</linearGradient>
<linearGradient id="paint3_linear_122_513" x1="15" y1="12" x2="183" y2="180" gradientUnits="userSpaceOnUse">
<stop stop-color="#10B981"/>
<stop offset="1" stop-color="#1054B9"/>
</linearGradient>
</defs>
</svg>
